<svg xmlns="http://www.w3.org/2000/svg" viewBox="0 0 64 64"><path fill="#F4CC9B" d="M48.953 11.275C48.591 7.755 45.62 5 42.021 5a6.85 6.85 0 0 0-3.236.805C37.347 3.463 34.788 2 32 2s-5.347 1.463-6.785 3.805A6.85 6.85 0 0 0 21.979 5c-3.599 0-6.57 2.755-6.932 6.275A6.966 6.966 0 0 0 10 18c0 1.231.328 2.448.95 3.519a.949.949 0 0 0 .817.481h40.465a.95.95 0 0 0 .818-.481A7.016 7.016 0 0 0 54 18a6.966 6.966 0 0 0-5.047-6.725z"/><circle cx="40" cy="14" r="3" fill="#FFF"/><circle cx="22" cy="15" r="2" fill="#FFF"/><circle cx="32" cy="9" r="2" fill="#FFF"/><path fill="#FFF" d="M30.01 17h-.02a.99.99 0 0 1-.99-.99v-.02a.99.99 0 0 1 .99-.99h.02a.99.99 0 0 1 .99.99v.02a.99.99 0 0 1-.99.99zM49.01 18h-.02a.99.99 0 0 1-.99-.99v-.02a.99.99 0 0 1 .99-.99h.02a.99.99 0 0 1 .99.99v.02a.99.99 0 0 1-.99.99zM15.01 18h-.02a.99.99 0 0 1-.99-.99v-.02a.99.99 0 0 1 .99-.99h.02a.99.99 0 0 1 .99.99v.02a.99.99 0 0 1-.99.99zM26.01 12h-.02a.99.99 0 0 1-.99-.99v-.02a.99.99 0 0 1 .99-.99h.02a.99.99 0 0 1 .99.99v.02a.99.99 0 0 1-.99.99z"/><path fill="#FE4938" d="M53.733 20.32A1 1 0 0 0 53 20H11a1 1 0 0 0-.997 1.075l3 40A1 1 0 0 0 14 62h36a1 1 0 0 0 .997-.925l3-40a.998.998 0 0 0-.264-.755z"/><circle cx="32" cy="41" r="8" fill="#E6E6E6"/><path fill="#454C54" d="M32.01 42h-.02a.99.99 0 0 1-.99-.99v-.02a.99.99 0 0 1 .99-.99h.02a.99.99 0 0 1 .99.99v.02a.99.99 0 0 1-.99.99zM36.01 42h-.02a.99.99 0 0 1-.99-.99v-.02a.99.99 0 0 1 .99-.99h.02a.99.99 0 0 1 .99.99v.02a.99.99 0 0 1-.99.99zM28.01 42h-.02a.99.99 0 0 1-.99-.99v-.02a.99.99 0 0 1 .99-.99h.02a.99.99 0 0 1 .99.99v.02a.99.99 0 0 1-.99.99z"/><path fill="#CB3A2D" d="m12.922 60 .081 1.075A1 1 0 0 0 14 62h36a1 1 0 0 0 .997-.925L51.078 60H12.922z"/></svg>